<?xml version="1.0" encoding="UTF-8" standalone="no"?>
<svg width="9px" height="14px" viewBox="0 0 9 14" version="1.1" xmlns="http://www.w3.org/2000/svg" xmlns:xlink="http://www.w3.org/1999/xlink">
    <!-- Generator: Sketch 48.1 (47250) - http://www.bohemiancoding.com/sketch -->
    <title>Combined Shape</title>
    <desc>Created with Sketch.</desc>
    <defs></defs>
    <g id="01c2_mergecontact" stroke="none" stroke-width="1" fill="none" fill-rule="evenodd" transform="translate(-1321.000000, -95.000000)">
        <g id="Group-4" transform="translate(1226.000000, 85.000000)" fill="#4A4A4A">
            <g id="Group-11-Copy-6" transform="translate(82.000000, 0.000000)">
                <path d="M17.375,18.3124229 C17.2122655,18.4304739 17.0262485,18.5389745 16.8164639,18.6427546 C16.1650149,18.9650254 16.280904,18.9052497 16.1151411,19.0173402 C15.2468712,19.604473 14.75,20.9176871 14.75,24 L13,24 C13,20.393579 13.7028306,18.5360207 15.1348589,17.5676689 C15.2921776,17.4612885 15.4525646,17.368469 15.6360503,17.273827 C15.739575,17.2204289 16.0818231,17.0537523 16.0404999,17.0741948 C16.4696171,16.8619113 16.5,16.823617 16.5,16.4166667 L16.5,13.9375 L14.3125,13.9375 C14.1940098,13.9375 14.0914718,13.8942062 14.0048828,13.8076172 C13.9182938,13.7210282 13.875,13.6184902 13.875,13.5 C13.875,13.3815098 13.9182938,13.2789718 14.0048828,13.1923828 L17.0673828,10.1298828 C17.1539718,10.0432938 17.2565098,10 17.375,10 C17.4934902,10 17.5960282,10.0432938 17.6826172,10.1298828 L20.7451172,13.1923828 C20.8317062,13.2789718 20.875,13.3815098 20.875,13.5 C20.875,13.6184902 20.8317062,13.7210282 20.7451172,13.8076172 C20.6585282,13.8942062 20.5559902,13.9375 20.4375,13.9375 L18.25,13.9375 L18.25,16.4166667 C18.25,16.823617 18.2803829,16.8619113 18.7095001,17.0741948 C18.6681769,17.0537523 19.010425,17.2204289 19.1139497,17.273827 C19.2974354,17.368469 19.4578224,17.4612885 19.6151411,17.5676689 C21.0471694,18.5360207 21.75,20.393579 21.75,24 L20,24 C20,20.9176871 19.5031288,19.604473 18.6348589,19.0173402 C18.469096,18.9052497 18.5849851,18.9650254 17.9335361,18.6427546 C17.7237515,18.5389745 17.5377345,18.4304739 17.375,18.3124229 Z" id="Combined-Shape"></path>
            </g>
        </g>
    </g>
</svg>