<?xml version="1.0" standalone="no"?>
<!DOCTYPE svg PUBLIC "-//W3C//DTD SVG 20010904//EN"
 "http://www.w3.org/TR/2001/REC-SVG-20010904/DTD/svg10.dtd">
<svg version="1.0" xmlns="http://www.w3.org/2000/svg"
 width="625.000000pt" height="625.000000pt" viewBox="0 0 625.000000 625.000000"
 preserveAspectRatio="xMidYMid meet">
<metadata>
Created by potrace 1.11, written by Peter Selinger 2001-2013
</metadata>
<g transform="translate(0.000000,625.000000) scale(0.100000,-0.100000)"
fill="#000000" stroke="none">
<path d="M0 3125 l0 -3125 3125 0 3125 0 0 3125 0 3125 -3125 0 -3125 0 0
-3125z m1268 1443 c5 -13 94 -404 198 -871 115 -514 192 -840 196 -830 4 10
57 234 117 498 153 669 280 1205 286 1216 4 5 169 9 409 9 l404 0 10 -42 c10
-38 366 -1544 389 -1643 9 -39 10 -38 36 75 15 63 99 447 187 853 88 406 162
742 165 748 4 5 168 9 406 9 373 0 399 -1 399 -17 -1 -10 -171 -675 -378
-1478 l-378 -1460 -426 -3 -426 -2 -20 82 c-10 46 -99 427 -198 846 -117 501
-181 758 -186 745 -4 -10 -93 -386 -198 -837 -105 -450 -193 -823 -196 -827
-7 -12 -841 -12 -849 0 -8 14 -755 2916 -755 2935 0 14 39 16 400 16 l400 0 8
-22z m4335 15 c4 -10 -63 -1983 -68 -2000 -3 -10 -78 -13 -330 -13 -252 0
-327 3 -330 13 -5 17 -72 1990 -68 2000 2 4 181 7 398 7 217 0 396 -3 398 -7z
m-13 -2578 l0 -375 -390 0 -390 0 0 375 0 375 390 0 390 0 0 -375z"/>
</g>
</svg>
