<?xml version="1.0" standalone="no"?>
<!DOCTYPE svg PUBLIC "-//W3C//DTD SVG 20010904//EN"
 "http://www.w3.org/TR/2001/REC-SVG-20010904/DTD/svg10.dtd">
<svg version="1.0" xmlns="http://www.w3.org/2000/svg"
 width="500.000000pt" height="500.000000pt" viewBox="0 0 500.000000 500.000000"
 preserveAspectRatio="xMidYMid meet">
<metadata>
Created by potrace 1.11, written by Peter Selinger 2001-2013
</metadata>
<g transform="translate(0.000000,500.000000) scale(0.100000,-0.100000)"
fill="#000000" stroke="none">
<path d="M3890 3548 c0 -7 -34 -318 -76 -691 -42 -373 -74 -680 -71 -683 6 -7
331 -64 335 -59 5 4 331 1349 328 1351 0 1 -109 21 -241 44 -132 23 -248 44
-257 46 -11 3 -18 0 -18 -8z"/>
<path d="M610 3524 c0 -3 112 -425 249 -938 138 -512 263 -979 278 -1038 l28
-108 265 0 265 0 144 543 c79 298 147 547 150 554 4 7 69 -223 145 -510 77
-287 143 -537 148 -555 l9 -32 264 0 c146 0 265 1 265 3 0 1 126 470 279 1042
l279 1040 -261 3 c-143 1 -261 1 -263 0 -1 -2 -69 -252 -150 -556 -88 -327
-151 -546 -155 -535 -3 10 -71 260 -150 556 l-143 537 -265 -2 -264 -3 -146
-542 c-80 -298 -148 -544 -151 -547 -3 -3 -66 221 -140 497 -74 276 -140 523
-148 550 l-14 47 -259 0 c-142 0 -259 -3 -259 -6z"/>
<path d="M3738 1966 c-85 -31 -140 -94 -159 -183 -39 -191 50 -315 238 -330
95 -7 140 5 193 53 56 50 83 122 84 219 1 71 -2 86 -27 128 -37 62 -99 102
-181 116 -79 14 -102 13 -148 -3z"/>
</g>
</svg>
